<svg width="102" height="99" viewBox="0 0 102 99" fill="none" xmlns="http://www.w3.org/2000/svg">
<path d="M52.8511 3.03516L95.4146 74.4718H10.2877L52.8511 3.03516Z" fill="#8B0303"/>
<path d="M52.8511 3.03516L95.4146 74.4718H10.2877L52.8511 3.03516Z" fill="#8B0303"/>
<path d="M79.4883 47.7617L95.5267 74.4728H63.4499L79.4883 47.7617Z" fill="#024A59"/>
<path d="M16.5662 57.371L14.0413 61.6368L16.1174 63.9767L14.94 65.9658L6.21666 55.5895L7.23288 53.8726L20.8851 55.9215L19.7032 57.9183L16.5662 57.371ZM12.7919 60.2288L14.6811 57.037L9.09638 56.0541L12.7919 60.2288ZM18.6673 48.8189L19.273 50.8141L22.7608 52.7524L21.6282 54.666L10.4427 48.4495L11.5753 46.536L16.8224 49.4521L16.1201 47.6546L14.1092 42.255L15.479 39.9406L18.0122 46.7863L26.8033 45.9226L25.4603 48.1916L18.6673 48.8189ZM28.4564 37.2823L25.9315 41.5481L28.0076 43.888L26.8302 45.8772L18.1069 35.5008L19.1231 33.7839L32.7753 35.8329L31.5934 37.8297L28.4564 37.2823ZM24.6822 40.1401L26.5713 36.9484L20.9866 35.9654L24.6822 40.1401ZM35.6861 24.7053L28.2691 18.3317L29.3927 16.4333L39.0741 25.1911L37.9907 27.0214L28.5843 24.578L35.4837 31.257L34.3959 33.0949L21.7062 29.4198L22.8298 27.5214L32.2461 30.4829L25.0861 23.7093L26.0352 22.1059L35.6861 24.7053ZM42.2537 13.9716L39.7288 18.2375L41.8049 20.5773L40.6275 22.5665L31.9042 12.1901L32.9204 10.4732L46.5726 12.5222L45.3907 14.519L42.2537 13.9716ZM38.4795 16.8295L40.3686 13.6377L34.7839 12.6548L38.4795 16.8295Z" fill="#C88D53"/>
<path d="M59.266 71.0327L61.575 72.3159L60.9458 73.379L54.7316 69.9254L56.1169 67.585C56.5215 66.9014 57.023 66.4598 57.6214 66.2601C58.2215 66.0575 58.8189 66.1215 59.4136 66.452C60.0225 66.7904 60.3793 67.2511 60.4842 67.8343C60.5906 68.4147 60.4341 69.0592 60.0146 69.7679L59.266 71.0327ZM58.3996 70.5512L59.1557 69.2738C59.3795 68.8956 59.4607 68.5573 59.3991 68.2588C59.3348 67.9587 59.1319 67.7137 58.7904 67.524C58.4547 67.3374 58.1275 67.2896 57.809 67.3806C57.4876 67.47 57.2196 67.6896 57.005 68.0394L56.2315 69.3462L58.3996 70.5512ZM61.8839 63.5529C61.7815 63.6748 61.688 63.8071 61.6035 63.95C61.3266 64.4178 61.3222 64.8341 61.5902 65.199L64.7485 66.9543L64.1441 67.9753L59.5262 65.4089L60.1032 64.434L60.6345 64.6958C60.3793 64.2263 60.3809 63.7731 60.6396 63.3361C60.7258 63.1904 60.817 63.081 60.9132 63.0079L61.8839 63.5529ZM63.3817 63.9833C62.9293 63.7319 62.5747 63.4175 62.3178 63.0402C62.058 62.6613 61.9259 62.2585 61.9215 61.8316C61.9142 61.4031 62.0332 60.9816 62.2786 60.567C62.6417 59.9535 63.1366 59.5678 63.7633 59.4098C64.3916 59.249 65.0464 59.3374 65.7276 59.675L65.9734 59.806C66.4286 60.059 66.7841 60.372 67.0398 60.7449C67.2972 61.115 67.4287 61.5157 67.4343 61.947C67.4416 62.3754 67.3209 62.7998 67.0722 63.22C66.6925 63.8615 66.172 64.2553 65.5107 64.4015C64.8483 64.5434 64.1557 64.4135 63.4329 64.0118L63.3817 63.9833ZM64.0757 63.0121C64.5509 63.2762 64.9808 63.3867 65.3655 63.3436C65.7474 63.299 66.0403 63.1044 66.2442 62.7598C66.4482 62.4152 66.47 62.0718 66.3095 61.7295C66.1508 61.3844 65.8082 61.0656 65.2819 60.7731C64.8152 60.5137 64.3865 60.4076 63.9956 60.4547C63.6064 60.499 63.3115 60.6906 63.1108 61.0295C62.9135 61.3629 62.892 61.7027 63.0462 62.049C63.1976 62.3938 63.5408 62.7148 64.0757 63.0121ZM64.759 56.568L69.7867 59.3622C70.259 59.6247 70.5501 59.9409 70.66 60.311C70.7745 60.6799 70.6999 61.087 70.4362 61.5324C70.3252 61.7201 70.194 61.8874 70.0429 62.0342L69.2234 61.5787C69.312 61.4865 69.3961 61.3732 69.4757 61.2387C69.6763 60.8998 69.5913 60.6217 69.2207 60.4046L64.1546 57.5891L64.759 56.568ZM62.9031 57.0108C62.7438 56.9222 62.6405 56.7997 62.5932 56.6431C62.5476 56.4838 62.5796 56.3116 62.689 56.1267C62.7984 55.9419 62.9356 55.8283 63.1006 55.7859C63.2656 55.7436 63.4277 55.7667 63.5871 55.8552C63.7435 55.9422 63.8446 56.0654 63.8902 56.2247C63.9329 56.3825 63.8996 56.5538 63.7901 56.7387C63.6807 56.9236 63.5449 57.038 63.3828 57.0819C63.2195 57.1215 63.0596 57.0977 62.9031 57.0108ZM71.2953 56.0851C70.9123 56.7322 70.3951 57.1428 69.7438 57.3169C69.0913 57.4866 68.4207 57.3801 67.7321 56.9974L67.6041 56.9262C67.1432 56.6701 66.7834 56.3547 66.5249 55.9802C66.2651 55.6013 66.1279 55.1975 66.1133 54.7687C66.0986 54.3398 66.2065 53.9307 66.437 53.5414C66.8034 52.9223 67.2867 52.5561 67.8869 52.443C68.4887 52.327 69.1566 52.473 69.8907 52.8809L70.309 53.1134L68.5506 56.0842C68.9501 56.2652 69.3255 56.3082 69.6768 56.213C70.0297 56.1151 70.3048 55.8994 70.5021 55.5661C70.779 55.0983 70.8124 54.6105 70.6024 54.1029L71.4617 53.849C71.63 54.1844 71.7005 54.5475 71.6734 54.9383C71.6452 55.3246 71.5191 55.7069 71.2953 56.0851ZM67.2667 54.0081C67.1009 54.2882 67.0662 54.5705 67.1626 54.8549C67.2606 55.1364 67.4734 55.3999 67.8009 55.6451L68.9524 53.6996L68.8756 53.6569C68.5152 53.4864 68.1995 53.432 67.9286 53.4936C67.6548 53.5537 67.4342 53.7252 67.2667 54.0081ZM73.1235 51.1372C73.2744 50.8823 73.3242 50.6289 73.2728 50.377C73.2215 50.1251 73.0882 49.9319 72.8729 49.7974L73.4424 48.8351C73.7232 49.006 73.9398 49.2437 74.0924 49.5481C74.2421 49.851 74.3058 50.1842 74.2835 50.5478C74.2611 50.9114 74.1529 51.257 73.9589 51.5848C73.5826 52.2207 73.075 52.6087 72.4362 52.7488C71.7974 52.8889 71.1096 52.7542 70.3726 52.3446L70.2659 52.2853C69.5631 51.8948 69.1106 51.3976 68.9084 50.7938C68.7033 50.1884 68.7898 49.5663 69.1678 48.9276C69.4878 48.387 69.9089 48.0365 70.431 47.8763C70.952 47.7116 71.4778 47.7656 72.0084 48.0381L71.4389 49.0004C71.1676 48.8645 70.8969 48.8332 70.6267 48.9064C70.3582 48.9768 70.1476 49.1409 69.9951 49.3986C69.7994 49.7291 69.7709 50.052 69.9095 50.3673C70.0452 50.681 70.3598 50.9768 70.8532 51.2548L71.0197 51.3473C71.5204 51.6256 71.9468 51.7453 72.2988 51.7064C72.6496 51.6631 72.9245 51.4734 73.1235 51.1372ZM70.4436 44.4434L71.5661 45.0673L72.0412 44.2647L72.8094 44.6917L72.3344 45.4942L74.9122 46.9269C75.0886 47.0249 75.2366 47.0625 75.356 47.0395C75.4743 47.0122 75.5857 46.9103 75.6901 46.7338C75.7598 46.6161 75.816 46.4892 75.8588 46.3529L76.6612 46.7988C76.5891 47.0677 76.4891 47.31 76.3615 47.5257C75.8972 48.3101 75.2255 48.4579 74.3463 47.9693L71.73 46.5153L71.2873 47.2632L70.5191 46.8363L70.9618 46.0883L69.8393 45.4645L70.4436 44.4434Z" fill="#C88D53"/>
</svg>
